<!-- Generated by IcoMoon.io -->
<svg version="1.1" xmlns="http://www.w3.org/2000/svg" width="72" height="72" fill="#0D5C63" viewBox="0 0 32 32">
<title>icn-settings-icn-xl</title>
<path d="M25.302 17.331c-0.156-0.157-0.342-0.281-0.546-0.365s-0.423-0.128-0.644-0.128c-0.221 0-0.44 0.044-0.644 0.128s-0.39 0.209-0.546 0.365l-2.684 2.684c-1.244-0.37-3.566-1.212-5.038-2.684s-2.313-3.793-2.684-5.038l2.684-2.684c0.156-0.156 0.281-0.342 0.365-0.546s0.128-0.423 0.128-0.644c0-0.221-0.044-0.44-0.128-0.644s-0.209-0.39-0.365-0.546l-6.735-6.735c-0.156-0.156-0.342-0.281-0.546-0.365s-0.423-0.128-0.644-0.128c-0.221 0-0.44 0.044-0.644 0.128s-0.39 0.209-0.546 0.365l-4.566 4.566c-0.64 0.64-1 1.519-0.987 2.416 0.039 2.398 0.673 10.725 7.237 17.289s14.891 7.196 17.29 7.237h0.047c0.889 0 1.729-0.35 2.366-0.987l4.566-4.566c0.157-0.156 0.281-0.342 0.365-0.546s0.128-0.423 0.128-0.644c0-0.221-0.044-0.44-0.128-0.644s-0.209-0.39-0.365-0.546l-6.735-6.737zM25.088 28.632c-2.101-0.035-9.291-0.599-14.94-6.25-5.667-5.667-6.216-12.882-6.25-14.941l3.376-3.376 4.354 4.354-2.177 2.177c-0.198 0.198-0.343 0.442-0.423 0.71s-0.092 0.552-0.035 0.826c0.040 0.194 1.029 4.785 3.824 7.58s7.387 3.783 7.58 3.824c0.274 0.059 0.558 0.048 0.826-0.032s0.512-0.226 0.709-0.424l2.179-2.177 4.354 4.354-3.378 3.376z"></path>
</svg>
