<!-- Generated by IcoMoon.io -->
<svg version="1.1" xmlns="http://www.w3.org/2000/svg" width="70" height="70" fill="#0D5C63" viewBox="0 0 32 32">
<title>Vector</title>
<path d="M30.805 0.524c-0.175-0.182-0.397-0.307-0.639-0.362s-0.494-0.037-0.726 0.051l-28.601 10.816c-0.247 0.097-0.459 0.27-0.609 0.496s-0.23 0.494-0.23 0.768c0 0.274 0.080 0.542 0.23 0.768s0.362 0.399 0.609 0.496l12.48 5.192 4.992 12.98c0.094 0.245 0.255 0.457 0.462 0.608s0.454 0.236 0.708 0.244c0.263-0.006 0.518-0.094 0.731-0.253s0.376-0.382 0.465-0.639l10.4-29.745c0.089-0.239 0.11-0.5 0.062-0.751s-0.164-0.483-0.335-0.669zM19.482 27.443l-3.627-9.464 6.227-6.476-1.833-1.906-6.279 6.53-9.048-3.826 22.79-8.558-8.229 23.701z"></path>
</svg>
