<!-- Generated by IcoMoon.io -->
<svg version="1.1" xmlns="http://www.w3.org/2000/svg" width="72" height="72" fill="#0D5C63" viewBox="0 0 32 32">
<title>icn-settings-icn-xl-1</title>
<path d="M13.111 18.667c3.554 0 6.444-2.791 6.444-6.222s-2.89-6.222-6.444-6.222c-3.554 0-6.444 2.791-6.444 6.222s2.89 6.222 6.444 6.222zM13.111 9.333c1.777 0 3.222 1.395 3.222 3.111s-1.445 3.111-3.222 3.111c-1.777 0-3.222-1.395-3.222-3.111s1.445-3.111 3.222-3.111z"></path>
<path d="M12.193 31.262c0.268 0.191 0.589 0.293 0.918 0.293s0.65-0.103 0.918-0.293c0.481-0.339 11.794-8.479 11.748-18.64 0-6.96-5.683-12.622-12.667-12.622s-12.667 5.663-12.667 12.614c-0.046 10.169 11.267 18.309 11.748 18.648zM13.111 3.156c5.239 0 9.5 4.246 9.5 9.475 0.033 7.002-6.948 13.29-9.5 15.352-2.551-2.064-9.533-8.353-9.5-15.36 0-5.221 4.261-9.467 9.5-9.467z"></path>
</svg>
